<?xml version="1.0" encoding="UTF-8"?>
<svg version="1.1" xmlns="http://www.w3.org/2000/svg" width="225" height="225">
<path d="M0 0 C74.25 0 148.5 0 225 0 C225 74.25 225 148.5 225 225 C150.75 225 76.5 225 0 225 C0 150.75 0 76.5 0 0 Z " fill="#141414" transform="translate(0,0)"/>
<path d="M0 0 C24.27386346 0.21392619 38.79670644 15.37885723 55.10717773 31.77246094 C58.50692742 35.25328729 61.86883388 38.76808461 65.21459961 42.30078125 C66.05253052 43.18552628 66.89046143 44.0702713 67.75378418 44.98182678 C78.33991095 56.2059898 88.66209443 67.65103282 98.77709961 79.30078125 C96.55355157 83.9416796 94.60898625 86.64366232 89.60888672 88.43725586 C77.36762087 90.9015343 63.80714944 92.52310267 52.84240723 85.39221191 C38.40786528 74.21854733 26.18070169 59.90265955 14.40107727 46.05348206 C12.58693207 44.09554025 11.56913344 43.36768851 8.90414429 43.14256287 C8.14469513 43.12701859 7.38524597 43.1114743 6.6027832 43.09545898 C5.74204193 43.07551376 4.88130066 43.05556854 3.99447632 43.03501892 C3.06422638 43.01830643 2.13397644 43.00159393 1.17553711 42.984375 C-0.25186295 42.95320335 -0.25186295 42.95320335 -1.70809937 42.92140198 C-4.75462471 42.85589992 -7.80123782 42.79701845 -10.84790039 42.73828125 C-12.91040955 42.69509666 -14.97290976 42.65148239 -17.03540039 42.60742188 C-22.09780993 42.50021785 -27.16030795 42.39895223 -32.22290039 42.30078125 C-32.27226549 37.35287948 -32.30860308 32.40512042 -32.33276367 27.45703125 C-32.34283356 25.77308659 -32.35649027 24.08915946 -32.3737793 22.40527344 C-32.39798465 19.98758624 -32.40937335 17.57012982 -32.41821289 15.15234375 C-32.42853546 14.39708405 -32.43885803 13.64182434 -32.44949341 12.86367798 C-32.44989357 11.00784145 -32.34512755 9.15258845 -32.22290039 7.30078125 C-25.18550909 0.26338995 -9.30598541 0.52114949 0 0 Z " fill="#A475F8" transform="translate(59.222900390625,88.69921875)"/>
<path d="M0 0 C21.11079322 2.63959506 39.33766863 28.97473023 52.32133484 44.23948669 C54.13548004 46.1974285 55.15327867 46.92528024 57.81826782 47.15040588 C58.57771698 47.16595016 59.33716614 47.18149445 60.11962891 47.19750977 C60.98037018 47.21745499 61.84111145 47.23740021 62.72793579 47.25794983 C63.65818573 47.27466232 64.58843567 47.29137482 65.546875 47.30859375 C66.49847504 47.32937485 67.45007507 47.35015594 68.43051147 47.37156677 C71.47703682 47.43706883 74.52364993 47.4959503 77.5703125 47.5546875 C79.63282166 47.59787209 81.69532187 47.64148636 83.7578125 47.68554688 C88.82022204 47.7927509 93.88272005 47.89401652 98.9453125 47.9921875 C98.9946776 52.94008927 99.03101519 57.88784833 99.05517578 62.8359375 C99.06524567 64.51988216 99.07890238 66.20380929 99.09619141 67.88769531 C99.12039676 70.30538251 99.13178546 72.72283893 99.140625 75.140625 C99.15094757 75.8958847 99.16127014 76.65114441 99.17190552 77.42929077 C99.17230568 79.2851273 99.06753966 81.1403803 98.9453125 82.9921875 C91.9079212 90.0295788 76.02839752 89.77181926 66.72241211 90.29296875 C42.44854865 90.07904256 27.92570567 74.91411152 11.61523438 58.52050781 C8.21548469 55.03968146 4.85357823 51.52488414 1.5078125 47.9921875 C0.66988159 47.10744247 -0.16804932 46.22269745 -1.03137207 45.31114197 C-11.61749885 34.08697895 -21.93968232 22.64193593 -32.0546875 10.9921875 C-26.4093333 -0.79056441 -11.74495016 -0.84309887 0 0 Z " fill="#A475F8" transform="translate(99.0546875,46.0078125)"/>
<path d="M0 0 C5.04663371 2.82611488 8.97669864 6.93009592 10.8125 12.4375 C11.50722361 19.48723631 11.29305749 25.6935295 6.8125 31.4375 C0.90668237 36.81984743 -4.3583964 37.80033064 -12.2421875 37.71484375 C-17.62123847 37.20832834 -20.49416054 34.3402662 -23.9375 30.5 C-28.01653062 24.9479861 -29.07515209 20.24283267 -28.1875 13.4375 C-26.2683404 6.75688114 -22.05433089 2.91904851 -16.1875 -0.5625 C-10.7121432 -2.38761893 -5.31037937 -2.38967072 0 0 Z " fill="#A374F6" transform="translate(187.1875,48.5625)"/>
<path d="M0 0 C4.58655865 3.3853171 8.44077308 7.61720415 10.625 12.9375 C11.61263201 19.69014679 10.63533094 25.37997348 6.625 30.9375 C2.12014449 35.91055678 -2.67696975 37.6764003 -9.25 38.3125 C-14.56924383 38.14976979 -19.05712861 36.13214279 -22.91796875 32.4765625 C-27.82263766 26.80958435 -28.95171329 22.4385456 -28.81640625 15.05078125 C-27.99408722 9.25088509 -25.02843936 5.42889726 -20.83984375 1.49609375 C-14.87366711 -2.71101361 -6.66564528 -2.09844388 0 0 Z " fill="#A374F6" transform="translate(55.375,140.0625)"/>
<path d="M0 0 C0.33 0 0.66 0 1 0 C1 15.84 1 31.68 1 48 C-14.84 48 -30.68 48 -47 48 C-47 47.67 -47 47.34 -47 47 C-46.3915625 46.9484375 -45.783125 46.896875 -45.15625 46.84375 C-32.76750995 45.24050129 -20.62927526 39.21942508 -12.1875 29.96484375 C-5.62164126 21.0657602 -0.94167922 11.11181475 0 0 Z " fill="#F9F9F9" transform="translate(224,177)"/>
<path d="M0 0 C15.84 0 31.68 0 48 0 C48 15.51 48 31.02 48 47 C47.67 47 47.34 47 47 47 C46.92523438 46.34515625 46.85046875 45.6903125 46.7734375 45.015625 C44.70713258 30.67303792 37.32331107 19.70581199 26.125 10.6875 C18.08802318 5.06957363 9.6666229 2.2527345 0 1 C0 0.67 0 0.34 0 0 Z " fill="#F9F9F9" transform="translate(177,0)"/>
<path d="M0 0 C0.33 0 0.66 0 1 0 C1.0515625 0.6084375 1.103125 1.216875 1.15625 1.84375 C2.94334173 15.65309515 9.97972529 28.45399672 21 37 C29.0077477 42.23798281 37.44554289 46.00474405 47 47 C47 47.33 47 47.66 47 48 C31.49 48 15.98 48 0 48 C0 32.16 0 16.32 0 0 Z " fill="#F9F9F9" transform="translate(0,177)"/>
<path d="M0 0 C15.51 0 31.02 0 47 0 C47 0.33 47 0.66 47 1 C46.34515625 1.07476562 45.6903125 1.14953125 45.015625 1.2265625 C30.67807865 3.29214121 19.63359786 10.66951414 10.6875 21.9375 C5.1603912 29.8602112 2.22110788 37.41339188 1 47 C0.67 47 0.34 47 0 47 C0 31.49 0 15.98 0 0 Z " fill="#FAFAFA" transform="translate(0,0)"/>
</svg>
